<?xml version="1.0" standalone="no"?>
<!DOCTYPE svg PUBLIC "-//W3C//DTD SVG 20010904//EN"
 "http://www.w3.org/TR/2001/REC-SVG-20010904/DTD/svg10.dtd">
<svg version="1.0" xmlns="http://www.w3.org/2000/svg"
 width="260.000000pt" height="260.000000pt" viewBox="0 0 260.000000 260.000000"
 preserveAspectRatio="xMidYMid meet">
<metadata>
Created by potrace 1.11, written by Peter Selinger 2001-2013
</metadata>
<g transform="translate(0.000000,260.000000) scale(0.100000,-0.100000)"
fill="#000000" stroke="none">
<path d="M1118 2588 c-29 -25 -48 -63 -48 -100 0 -30 8 -47 38 -80 l37 -41 5
38 c3 21 10 40 17 42 8 3 10 -8 6 -36 -7 -54 14 -55 56 -4 43 52 49 95 22 149
-22 46 -30 51 -63 33 -14 -8 -23 -8 -31 0 -14 14 -20 14 -39 -1z"/>
<path d="M1608 2508 c-24 -14 -38 -29 -38 -42 0 -18 1 -18 18 -3 30 27 77 22
101 -12 12 -16 21 -39 21 -50 0 -28 15 -27 45 3 20 20 23 30 16 48 -5 13 -16
22 -24 22 -10 -1 -13 4 -10 14 8 20 -24 42 -61 42 -17 0 -48 -10 -68 -22z"/>
<path d="M973 2460 c-17 -7 -23 -18 -23 -39 0 -16 -6 -31 -15 -35 -22 -8 -18
-40 10 -70 25 -27 54 -33 71 -16 6 6 33 19 60 30 29 11 43 20 34 23 -8 3 -24
8 -34 11 -15 5 -17 9 -8 18 9 9 15 9 24 0 7 -7 16 -12 21 -12 4 0 -11 23 -34
50 -43 51 -61 58 -106 40z"/>
<path d="M1264 2433 c-16 -21 -35 -47 -43 -58 -16 -19 -15 -19 11 -2 30 19 48
22 48 8 0 -5 -11 -12 -25 -15 -29 -7 -34 -26 -7 -26 9 0 34 -11 54 -25 46 -31
63 -31 93 0 28 27 34 82 11 91 -9 3 -12 12 -9 21 9 23 -24 43 -68 43 -32 0
-42 -6 -65 -37z"/>
<path d="M1590 2442 c-13 -11 -22 -29 -22 -45 0 -31 27 -67 50 -67 9 0 23 -6
31 -14 32 -28 59 -29 86 -2 39 40 34 58 -16 50 -41 -7 -42 -7 -35 20 8 34 -18
76 -49 76 -13 0 -33 -8 -45 -18z"/>
<path d="M1901 2363 c-5 -10 -13 -15 -17 -11 -13 14 -34 -14 -34 -44 0 -47 26
-84 75 -108 53 -26 65 -21 41 14 -19 29 -20 36 -6 36 6 0 15 -11 22 -25 17
-37 28 -20 28 41 0 48 -4 60 -29 85 -33 33 -65 37 -80 12z"/>
<path d="M2044 2332 c-6 -4 -14 -38 -17 -77 l-6 -70 20 24 c11 13 22 21 26 17
4 -3 -3 -17 -15 -29 -26 -28 -20 -37 25 -37 85 0 125 60 91 135 -11 24 -19 29
-45 26 -7 -1 -13 3 -13 9 0 11 -49 14 -66 2z"/>
<path d="M1063 2311 c-51 -24 -75 -59 -71 -103 3 -30 6 -33 35 -31 26 2 32 -1
35 -19 5 -33 32 -33 69 0 31 28 33 35 37 103 l4 74 -24 -32 c-13 -18 -29 -33
-35 -33 -20 0 -15 18 7 30 11 6 20 15 20 20 0 15 -31 11 -77 -9z"/>
<path d="M1183 2244 c-2 -83 -2 -84 27 -99 39 -20 61 -19 67 4 3 11 15 21 27
23 16 2 22 11 24 40 4 46 -10 74 -51 98 -36 23 -79 28 -59 8 15 -15 16 -38 2
-38 -5 0 -10 6 -10 14 0 7 -6 18 -13 24 -10 8 -13 -7 -14 -74z"/>
<path d="M1817 2182 c-21 -23 -23 -82 -3 -82 7 0 16 -9 19 -20 8 -30 50 -25
92 11 43 38 44 47 3 51 -17 2 -33 9 -36 16 -3 10 5 12 34 7 l39 -6 -35 20
c-44 25 -92 27 -113 3z"/>
<path d="M2150 2158 c-14 -5 -43 -10 -64 -10 l-40 0 26 -20 c15 -10 32 -34 38
-53 9 -27 17 -35 36 -35 17 0 24 6 24 20 0 11 7 20 15 20 8 0 18 12 21 26 9
37 -21 66 -56 52z"/>
<path d="M1969 2124 c-45 -52 -49 -91 -15 -131 20 -23 26 -25 39 -15 10 9 17
10 22 2 10 -17 31 -11 59 16 34 35 33 65 -5 109 -41 47 -64 47 -56 0 4 -26 2
-35 -8 -35 -9 0 -15 14 -17 36 -3 35 -4 35 -19 18z"/>
<path d="M2261 2051 c-12 -12 -21 -32 -21 -46 0 -22 -3 -24 -29 -19 -23 5 -32
2 -41 -16 -18 -34 -4 -62 49 -96 50 -32 50 -32 68 -12 10 11 35 29 55 39 45
23 56 54 39 109 -13 44 -27 58 -44 41 -14 -14 -28 -14 -24 1 4 21 -31 20 -52
-1z"/>
<path d="M1789 2009 c-8 -15 -14 -18 -22 -10 -25 25 -47 11 -77 -49 -47 -94
-37 -161 33 -214 19 -15 37 -26 40 -26 3 0 -1 21 -10 46 -11 31 -12 49 -5 56
16 16 34 0 23 -20 -10 -18 8 -74 27 -86 15 -9 21 42 9 75 -12 31 -3 49 15 31
7 -7 11 -30 10 -52 -2 -22 0 -40 2 -40 13 0 58 106 63 149 6 54 -20 118 -59
145 -29 21 -35 20 -49 -5z"/>
<path d="M1953 1890 c-19 -11 -33 -28 -33 -39 0 -11 -15 -49 -34 -85 -19 -36
-31 -66 -28 -66 13 1 38 25 45 43 3 9 13 17 22 17 26 0 16 -27 -17 -48 l-32
-21 64 0 c36 0 79 -4 95 -9 55 -16 120 53 113 121 -2 27 -8 33 -30 35 -30 4
-33 9 -18 32 15 25 -9 40 -64 40 -33 0 -62 -7 -83 -20z"/>
<path d="M1315 1810 c-20 -22 -21 -21 18 -38 15 -6 27 -15 27 -20 0 -5 16 -4
35 2 22 7 35 17 35 28 0 19 -28 38 -47 31 -6 -2 -14 1 -18 6 -10 17 -30 13
-50 -9z"/>
<path d="M404 1780 c-5 -5 -8 -28 -6 -49 4 -38 6 -40 36 -39 30 1 31 2 31 49
0 46 -2 49 -25 49 -15 0 -30 -4 -36 -10z"/>
<path d="M1570 1773 c-22 -8 -60 -45 -60 -59 0 -6 7 -17 15 -24 14 -12 13 -15
-5 -32 -26 -25 -25 -32 8 -70 25 -27 36 -31 75 -31 43 0 51 4 96 51 47 49 48
52 25 53 -13 1 -28 3 -34 4 -5 1 -14 3 -20 4 -5 0 -10 8 -10 16 0 20 29 19 51
-1 12 -10 25 -13 40 -9 22 7 22 8 -7 22 -16 9 -40 26 -54 38 -46 41 -81 52
-120 38z"/>
<path d="M1314 1708 c12 -56 25 -65 72 -54 55 14 90 86 41 86 -12 0 -32 -7
-44 -15 -21 -15 -23 -14 -39 10 -29 45 -43 32 -30 -27z"/>
<path d="M480 1737 c0 -18 34 -57 49 -57 5 0 16 -3 25 -6 11 -4 16 0 16 15 0
14 -8 23 -27 27 -16 4 -36 14 -45 22 -16 14 -18 13 -18 -1z"/>
<path d="M335 1710 c-31 -60 -13 -125 43 -154 59 -30 69 -29 76 4 3 17 19 45
35 61 l30 29 -22 12 c-12 7 -44 12 -72 13 -50 0 -50 0 -49 33 2 41 -20 43 -41
2z"/>
<path d="M1880 1676 c0 -2 18 -23 41 -47 26 -27 37 -45 30 -52 -13 -13 -31 0
-31 23 0 18 -34 50 -53 50 -5 0 0 -15 11 -32 11 -18 28 -57 38 -87 23 -65 62
-101 110 -101 27 0 36 5 44 24 5 14 19 26 32 28 19 2 23 10 26 46 3 40 -1 47
-40 87 -26 25 -59 47 -83 54 -39 11 -125 15 -125 7z"/>
<path d="M1744 1628 c-53 -38 -78 -83 -82 -152 -5 -79 12 -106 53 -88 24 11
29 10 42 -8 20 -28 47 -25 87 10 62 55 70 135 21 216 l-24 39 -2 -35 c-2 -82
-10 -103 -31 -82 -10 10 -10 17 0 32 13 21 16 63 5 73 -3 4 -17 -16 -30 -43
-13 -28 -30 -50 -38 -50 -21 0 -18 27 4 39 19 10 47 71 33 71 -4 0 -21 -10
-38 -22z"/>
<path d="M60 1621 c-13 -9 -13 -11 1 -11 8 0 30 -16 49 -35 19 -19 42 -35 52
-35 10 0 18 -4 18 -10 0 -12 70 -13 89 -1 12 8 12 13 -2 35 -10 14 -28 33 -41
41 -29 19 -145 30 -166 16z"/>
<path d="M591 1612 c-7 -13 -18 -18 -34 -15 -18 4 -26 -2 -35 -22 -15 -32 -15
-62 -2 -70 19 -12 10 -25 -13 -20 -15 4 -32 -1 -48 -14 -20 -16 -22 -23 -13
-39 8 -11 9 -24 3 -34 -15 -26 26 -48 91 -48 30 -1 72 -7 93 -14 35 -13 39
-12 50 5 7 11 34 34 61 51 64 41 96 118 50 118 -8 0 -14 9 -14 20 0 25 -45 28
-77 5 -21 -14 -21 -14 -16 23 6 43 -7 58 -55 68 -24 5 -32 2 -41 -14z m39
-143 c0 -11 5 -30 11 -41 9 -17 13 -18 20 -7 5 8 9 24 9 37 0 12 5 22 10 22
24 0 1 -86 -25 -97 -17 -6 -95 26 -95 40 0 13 27 8 40 -8 22 -27 31 -16 15 21
-19 46 -19 54 0 54 8 0 15 -9 15 -21z"/>
<path d="M50 1540 c3 -27 8 -52 11 -54 2 -2 16 6 31 19 l27 24 -28 30 c-16 17
-33 31 -38 31 -5 0 -7 -22 -3 -50z"/>
<path d="M2291 1499 c-17 -28 -20 -29 -29 -12 -14 23 -37 10 -70 -38 -32 -47
-28 -136 9 -175 26 -28 78 -58 86 -50 3 3 -5 26 -17 51 -12 25 -20 49 -17 52
11 10 39 -7 34 -20 -3 -7 4 -28 14 -47 l18 -35 1 60 c0 57 18 111 52 157 10
13 7 22 -16 52 -15 20 -31 36 -37 36 -5 0 -18 -14 -28 -31z"/>
<path d="M2472 1472 c-70 -21 -132 -113 -132 -198 l0 -49 20 33 c11 18 20 39
20 47 0 8 7 15 15 15 20 0 19 -15 -4 -48 -11 -15 -22 -38 -26 -51 l-7 -24 34
26 c47 37 100 57 146 57 38 0 40 1 51 44 6 25 11 59 11 77 0 29 -2 31 -29 27
-28 -4 -29 -3 -24 24 5 26 3 28 -23 27 -16 -1 -39 -4 -52 -7z"/>
<path d="M174 1455 c-5 -11 -10 -12 -25 -2 -32 19 -52 -15 -46 -80 l6 -53 -30
0 c-47 0 -70 -17 -67 -48 1 -15 -1 -32 -5 -38 -3 -6 0 -20 8 -30 11 -16 32
-20 147 -25 73 -4 135 -4 138 -2 2 2 -2 16 -10 31 -12 20 -24 27 -54 29 -39 2
-108 41 -103 57 6 18 24 17 29 -2 3 -11 20 -24 37 -30 l32 -11 -36 41 c-37 44
-41 53 -26 63 10 6 24 -11 27 -33 3 -17 24 -42 36 -42 5 0 4 9 -2 19 -13 26
-13 84 1 115 9 20 9 29 -1 41 -16 19 -49 20 -56 0z"/>
<path d="M304 1456 c-31 -14 -64 -67 -64 -104 0 -12 5 -33 10 -48 l11 -27 25
36 c15 22 36 39 52 42 15 4 34 10 42 14 21 11 25 50 6 57 -9 3 -16 12 -16 19
0 10 -23 27 -33 25 -1 -1 -16 -7 -33 -14z"/>
<path d="M311 1314 c-26 -33 -26 -50 -3 -98 l19 -38 31 36 c38 43 48 76 32
105 -15 29 -54 27 -79 -5z"/>
<path d="M1883 1312 c-90 -83 -79 -197 27 -272 l29 -21 -10 33 c-6 18 -14 40
-19 49 -6 11 -4 23 5 35 13 18 14 18 20 2 4 -9 4 -21 1 -26 -7 -11 12 -72 26
-87 6 -6 9 8 6 40 -2 41 0 50 15 53 19 4 25 -34 6 -40 -6 -2 -9 -15 -7 -28 3
-23 5 -21 30 20 14 25 38 56 52 69 33 31 34 80 4 141 -26 50 -57 63 -88 35
-17 -16 -19 -15 -30 4 -15 28 -32 26 -67 -7z"/>
<path d="M1703 1313 c-13 -8 -23 -24 -23 -34 0 -11 -4 -19 -10 -19 -5 0 -10
-10 -10 -22 0 -17 3 -19 12 -10 7 7 22 12 34 12 12 0 27 7 34 15 7 8 23 15 36
15 13 0 24 5 24 10 0 6 -4 10 -10 10 -5 0 -19 9 -30 20 -24 24 -28 24 -57 3z"/>
<path d="M805 1284 c-85 -46 -130 -137 -107 -219 l8 -29 17 41 c19 48 30 58
46 39 8 -10 5 -19 -14 -40 -31 -34 -33 -57 -2 -29 39 36 109 65 171 71 34 3
64 10 68 16 12 18 9 91 -4 104 -7 7 -28 12 -48 12 -32 0 -36 3 -36 23 1 18 -5
22 -34 24 -19 2 -48 -5 -65 -13z"/>
<path d="M557 1259 c-12 -17 -19 -19 -35 -10 -14 7 -24 7 -35 -2 -24 -18 -47
-81 -47 -128 0 -33 6 -47 34 -75 23 -23 43 -34 63 -34 15 0 53 -3 83 -7 l55
-6 -19 21 c-10 11 -28 22 -39 24 -29 4 -36 38 -8 38 11 0 23 -4 26 -10 3 -5
14 -14 24 -20 17 -9 18 -4 14 63 -5 86 -17 121 -51 147 -32 25 -47 25 -65 -1z"/>
<path d="M2477 1247 c-53 -17 -107 -63 -107 -91 0 -44 67 -96 124 -96 33 0 76
37 76 65 0 12 7 28 15 35 8 7 15 26 15 42 0 24 -6 32 -35 44 -40 16 -38 16
-88 1z"/>
<path d="M1752 1232 c-11 -11 -28 -19 -37 -19 -26 3 -30 -20 -6 -28 29 -9 59
2 72 27 16 31 -4 45 -29 20z"/>
<path d="M2157 1170 c-44 -13 -94 -56 -132 -113 -19 -28 -32 -53 -30 -55 9 -9
66 21 76 39 13 25 39 24 39 -1 0 -11 -7 -20 -15 -20 -24 0 -87 -48 -74 -56 17
-10 142 -18 181 -10 46 9 86 44 102 91 16 44 7 65 -26 65 -16 0 -17 3 -8 21
13 23 13 22 -17 38 -25 13 -56 13 -96 1z"/>
<path d="M207 1119 c-37 -10 -57 -28 -73 -64 -11 -28 -10 -30 17 -47 16 -10
35 -29 41 -43 13 -30 24 -32 33 -6 3 11 30 44 60 74 48 48 53 56 39 68 -12 10
-20 10 -35 1 -24 -15 -29 -15 -29 2 0 19 -19 24 -53 15z"/>
<path d="M1710 1113 c-26 -10 -60 -46 -60 -64 0 -10 8 -22 18 -28 14 -8 15
-12 5 -22 -20 -20 -15 -56 9 -73 47 -33 80 -30 163 12 72 37 76 41 56 51 -12
7 -38 11 -58 9 -29 -2 -38 1 -41 15 -3 16 1 17 35 12 21 -4 47 -9 58 -12 26
-7 -48 73 -87 93 -27 14 -70 17 -98 7z"/>
<path d="M883 1090 c-35 -8 -118 -54 -128 -71 -10 -16 -3 -19 48 -20 51 -2 82
-24 56 -40 -19 -12 -25 -11 -39 6 -7 8 -24 15 -39 15 l-26 -1 30 -16 c17 -8
48 -32 70 -53 52 -49 75 -60 125 -60 44 0 100 30 100 54 0 7 -9 21 -20 31 -25
23 -25 35 -1 35 36 0 43 24 18 60 -41 60 -107 81 -194 60z"/>
<path d="M334 1050 c-22 -9 -107 -100 -100 -107 4 -4 14 0 64 26 23 12 42 8
42 -10 0 -5 -13 -9 -28 -9 -16 0 -36 -6 -46 -13 -17 -13 -17 -14 5 -28 13 -9
32 -18 42 -22 9 -3 17 -13 17 -22 0 -21 -12 -19 -33 5 -24 28 -50 27 -41 -2 4
-13 11 -26 17 -29 5 -4 6 -12 3 -18 -12 -19 -26 -12 -26 13 0 39 -17 39 -30 1
-6 -20 -22 -48 -36 -64 l-23 -28 23 -22 c26 -24 80 -43 102 -34 8 3 19 14 24
24 8 14 17 17 40 13 25 -5 31 -2 41 20 10 21 9 33 -7 68 -26 57 -23 117 7 159
26 37 26 57 1 77 -18 14 -28 14 -58 2z"/>
<path d="M1464 1005 c-6 -15 -4 -21 21 -65 8 -14 15 -40 15 -58 0 -32 0 -32
28 -18 45 23 64 51 60 88 -2 26 -7 33 -23 31 -10 -1 -25 7 -33 18 -16 23 -60
25 -68 4z"/>
<path d="M85 983 c7 -28 8 -63 4 -128 -3 -38 26 -88 54 -93 21 -4 67 65 67
101 0 66 -58 147 -106 147 -24 0 -26 -3 -19 -27z"/>
<path d="M2338 984 c-30 -15 -34 -24 -19 -39 5 -6 14 -27 21 -47 l11 -38 48
25 c49 24 61 40 61 77 0 17 -3 18 -14 9 -11 -10 -16 -8 -21 8 -8 25 -47 27
-87 5z"/>
<path d="M1260 982 c-26 -8 -61 -45 -82 -86 -39 -77 -16 -177 52 -224 18 -12
35 -21 37 -19 2 2 -4 23 -12 47 -17 48 -12 80 12 80 12 0 14 -7 10 -34 -11
-67 16 -106 29 -41 8 45 27 61 45 39 12 -15 11 -19 -9 -32 -22 -15 -30 -42
-12 -42 20 0 89 82 106 127 15 39 16 52 5 92 -11 42 -44 91 -62 91 -4 0 -21
-12 -38 -26 l-31 -26 -9 25 c-11 30 -21 36 -41 29z"/>
<path d="M474 961 c-33 -20 -58 -67 -52 -98 2 -10 13 -22 26 -28 15 -7 22 -18
22 -37 0 -33 24 -48 80 -48 58 0 90 33 90 95 0 25 7 59 15 75 14 27 14 29 -2
23 -10 -3 -28 -18 -40 -32 -18 -21 -24 -23 -32 -12 -11 17 -4 41 13 41 6 0 22
9 36 20 l25 20 -75 0 c-56 0 -83 -5 -106 -19z"/>
<path d="M748 943 c6 -10 22 -29 37 -41 21 -18 24 -27 16 -35 -9 -9 -20 -2
-46 28 -31 36 -34 38 -35 17 0 -12 5 -31 12 -42 14 -22 6 -35 -17 -27 -10 5
-15 20 -15 54 0 45 -1 46 -15 26 -20 -28 -37 -165 -26 -196 23 -60 117 -101
128 -57 6 24 6 24 44 5 53 -28 99 22 99 107 0 38 -4 46 -31 62 -17 10 -43 32
-57 48 -15 17 -44 39 -65 50 -36 18 -38 18 -29 1z"/>
<path d="M1851 920 c-74 -54 -104 -128 -82 -202 12 -38 14 -40 46 -35 29 5 34
2 39 -19 5 -19 13 -24 37 -24 43 0 101 33 123 70 18 32 18 32 -8 84 -15 29
-30 72 -34 96 -8 44 -9 44 -15 15 -4 -16 -6 -39 -4 -50 1 -12 -4 -20 -13 -20
-15 0 -15 5 -3 70 6 30 6 30 -16 11 -11 -11 -21 -25 -21 -31 0 -16 -29 -40
-37 -31 -4 4 -2 15 5 24 25 36 42 72 34 72 -5 0 -28 -14 -51 -30z"/>
<path d="M2014 931 c11 -12 27 -21 35 -20 31 3 41 -1 41 -16 0 -23 -33 -18
-74 10 l-38 26 7 -33 c19 -92 89 -176 164 -199 44 -13 71 -2 71 28 0 11 7 13
25 9 21 -5 27 -2 36 21 13 35 4 100 -20 140 -19 31 -20 31 -123 35 -56 3 -112
9 -123 13 -20 8 -20 8 -1 -14z"/>
<path d="M2480 933 c0 -22 -35 -56 -88 -85 -22 -12 -34 -28 -42 -58 -15 -54
-8 -70 30 -70 42 0 84 23 110 61 19 25 22 40 18 90 -2 33 -10 65 -16 71 -9 9
-12 7 -12 -9z"/>
<path d="M1512 813 c-12 -2 -30 -16 -40 -30 -9 -14 -37 -47 -61 -74 -38 -43
-41 -49 -22 -49 11 0 21 5 21 11 0 6 8 9 18 7 24 -5 22 -33 -3 -34 -55 -3 -55
-7 4 -24 35 -10 83 -32 108 -49 49 -35 59 -33 104 16 49 52 66 118 34 128 -49
15 -49 15 -37 27 16 16 15 43 0 56 -15 12 -94 22 -126 15z"/>
<path d="M1011 739 c-25 -15 -32 -25 -28 -41 3 -11 1 -28 -5 -38 -9 -13 -8
-26 2 -49 14 -34 76 -91 98 -91 8 0 29 15 48 32 19 18 49 41 67 50 l32 18 -40
-3 c-30 -1 -40 2 -40 13 0 12 10 14 44 12 l44 -4 -37 33 c-20 17 -44 45 -52
60 -12 25 -20 29 -57 29 -25 0 -56 -8 -76 -21z"/>
<path d="M435 680 c-3 -5 -16 -10 -29 -10 -42 0 -73 -60 -56 -105 9 -24 20
-29 80 -39 35 -6 35 -6 13 10 -23 16 -31 44 -14 44 5 0 16 -10 25 -22 16 -23
16 -22 10 13 -3 22 0 50 9 72 9 19 13 38 9 41 -9 10 -40 7 -47 -4z"/>
<path d="M533 670 c-35 -14 -56 -55 -50 -96 8 -48 11 -50 45 -25 36 25 42 26
42 6 0 -8 -9 -15 -19 -15 -65 0 11 -52 78 -53 67 -2 85 85 30 142 -44 47 -82
59 -126 41z"/>
<path d="M2051 643 c-11 -23 -53 -47 -103 -58 -34 -7 -37 -34 -8 -88 11 -20
20 -43 20 -50 0 -8 17 -19 38 -25 21 -6 62 -32 91 -57 42 -36 56 -43 67 -34 8
6 14 17 14 24 0 6 10 11 23 11 20 -1 22 4 21 42 -1 37 2 42 21 42 65 0 120 45
94 77 -11 12 -10 17 4 24 45 26 -12 96 -68 84 -60 -14 -120 -10 -162 11 l-41
21 -11 -24z m79 -74 c0 -6 -9 -22 -20 -36 -11 -14 -20 -32 -20 -39 0 -19 30
-17 52 3 13 11 22 13 29 6 19 -19 -64 -60 -101 -48 -24 8 -35 27 -44 78 -6 34
-5 38 11 35 14 -2 17 -11 15 -36 -2 -17 -1 -32 2 -32 3 0 18 18 32 40 26 39
44 51 44 29z"/>
<path d="M1371 594 c7 -9 23 -20 36 -25 14 -5 23 -17 23 -29 0 -31 -22 -24
-57 17 -33 41 -56 42 -25 2 30 -39 45 -97 39 -152 -11 -90 28 -114 89 -53 28
28 36 31 45 20 16 -20 24 -17 37 11 25 54 9 116 -40 162 -29 27 -106 62 -137
63 -20 0 -22 -2 -10 -16z"/>
<path d="M1189 571 c-83 -52 -111 -113 -86 -187 11 -33 17 -39 39 -37 19 1 29
-4 33 -18 15 -46 132 -4 167 61 26 47 19 108 -18 163 l-29 42 -3 -35 c-2 -19
1 -36 7 -38 20 -7 12 -42 -9 -42 -17 0 -20 7 -20 51 0 45 -2 50 -15 39 -8 -7
-15 -23 -15 -35 0 -19 -17 -35 -36 -35 -10 0 -3 40 9 47 16 10 40 53 29 53 -4
0 -28 -13 -53 -29z"/>
<path d="M834 565 c-15 -24 -17 -24 -30 -8 -13 17 -16 16 -40 -11 -24 -27 -26
-34 -20 -88 7 -56 6 -60 -23 -88 -16 -17 -37 -30 -45 -30 -21 0 -20 -13 2 -33
23 -21 80 -22 118 -2 l28 14 -37 16 c-20 8 -37 20 -37 25 0 15 26 12 40 -5 7
-8 20 -15 30 -15 16 0 17 5 9 38 -12 51 -11 64 4 59 6 -2 11 -15 9 -30 -2 -15
1 -33 5 -42 7 -12 16 -6 43 32 63 87 69 122 26 161 -37 34 -63 36 -82 7z"/>
<path d="M1723 558 c-62 -67 -67 -103 -23 -170 50 -76 60 -79 53 -18 -5 43 -3
52 8 48 9 -3 13 -17 11 -40 -4 -47 11 -55 42 -23 14 14 39 28 56 31 37 8 38
23 8 116 -22 69 -39 83 -66 56 -9 -9 -12 -7 -12 10 0 34 -40 28 -77 -10z"/>
<path d="M346 488 c-20 -29 -21 -68 -1 -68 9 0 14 -8 12 -22 -1 -15 6 -26 23
-35 24 -12 25 -11 30 26 4 21 14 50 23 64 21 32 22 43 2 27 -8 -6 -19 -9 -25
-5 -18 11 -11 24 18 28 17 2 9 5 -20 6 -38 1 -50 -3 -62 -21z"/>
<path d="M520 491 c0 -5 12 -18 28 -29 21 -16 24 -23 15 -33 -10 -10 -16 -7
-32 12 -11 13 -21 29 -21 34 0 6 -5 2 -11 -7 -7 -12 -6 -24 1 -39 10 -18 9
-20 -7 -17 -14 2 -17 11 -15 36 2 17 1 32 -2 32 -13 0 -46 -66 -46 -90 0 -59
69 -120 103 -91 10 8 17 7 25 -1 16 -16 39 6 53 52 10 32 17 39 44 44 36 7 58
46 48 86 -5 18 -7 19 -22 7 -29 -26 -57 -28 -105 -7 -54 23 -56 23 -56 11z"/>
<path d="M950 435 c-34 -25 -77 -82 -68 -91 3 -2 16 5 31 16 29 23 37 25 37 7
0 -6 -13 -18 -30 -25 -16 -8 -30 -18 -30 -22 0 -16 87 -23 125 -10 34 11 36
14 28 43 -4 18 -8 49 -8 70 0 33 -3 37 -26 37 -14 0 -40 -11 -59 -25z"/>
<path d="M1620 397 c0 -13 -13 -43 -29 -67 -33 -50 -31 -64 10 -79 l30 -10
-20 -22 c-12 -13 -24 -38 -27 -56 -5 -27 -2 -38 19 -59 24 -24 29 -25 61 -14
32 10 33 12 23 40 -9 24 -7 38 11 82 12 28 21 53 19 54 -1 2 -15 4 -30 6 -15
2 -26 8 -25 14 2 5 8 7 13 5 6 -2 21 -6 35 -8 22 -4 20 -2 -12 22 -21 15 -35
32 -31 38 3 5 13 1 22 -11 9 -11 27 -23 41 -27 22 -6 19 -1 -20 41 -76 81 -90
89 -90 51z"/>
<path d="M1855 365 c-73 -38 -86 -95 -30 -143 49 -44 93 -50 152 -21 39 20 48
29 48 51 1 14 7 33 14 42 17 21 3 40 -50 67 -46 23 -93 24 -134 4z"/>
<path d="M773 280 c-17 -10 -37 -28 -42 -39 -18 -33 -13 -95 9 -119 24 -25 25
-26 52 -11 17 9 24 8 34 -6 29 -40 70 18 54 76 -5 17 -16 41 -24 53 -7 12 -16
31 -18 41 -4 18 -6 17 -16 -7 -6 -16 -16 -28 -22 -28 -15 0 -12 21 7 42 21 23
6 23 -34 -2z"/>
<path d="M900 280 c12 -9 18 -19 14 -23 -4 -4 -18 3 -31 15 -32 30 -30 7 4
-59 28 -53 63 -78 100 -71 10 2 19 14 21 26 3 20 8 23 29 17 30 -7 43 7 43 46
0 51 -19 61 -113 63 -80 1 -85 0 -67 -14z"/>
<path d="M1316 262 c-9 -15 25 -32 62 -32 16 0 49 -7 72 -15 24 -8 45 -13 47
-11 2 2 -11 16 -31 31 -38 29 -138 47 -150 27z"/>
<path d="M1743 248 c-51 -57 -58 -118 -16 -145 34 -22 97 -21 123 2 31 28 25
60 -14 83 -18 11 -40 34 -47 51 -17 37 -20 38 -46 9z"/>
<path d="M1234 249 c-3 -6 -30 -22 -59 -34 -72 -32 -85 -48 -85 -101 0 -48 11
-55 48 -28 24 16 25 14 22 -29 -1 -25 2 -27 33 -27 19 0 39 6 45 13 9 11 14
217 5 217 -1 0 -5 -5 -9 -11z"/>
<path d="M1270 198 c1 -92 14 -139 50 -171 47 -42 110 -33 110 17 0 19 0 19
21 0 15 -14 24 -16 37 -8 21 13 28 75 12 104 -17 31 -70 60 -111 60 -24 0 -50
10 -77 30 l-42 30 0 -62z"/>
</g>
</svg>
